<svg width="79" height="66" viewBox="0 0 79 66" fill="none" xmlns="http://www.w3.org/2000/svg">
<g clip-path="url(#clip0_3_32)">
<rect width="79" height="66" fill="#F8F8F8"/>
<path d="M14.1875 65.9973H14.0318C10.269 65.9973 6.66041 64.2282 3.99974 61.0791C1.33908 57.9301 -0.15567 53.6591 -0.15567 49.2058C-0.15567 44.7524 1.33908 40.4814 3.99974 37.3324C6.66041 34.1834 10.269 32.4143 14.0318 32.4143H14.1968H14.1875C14.4059 32.4143 14.6266 32.4335 14.845 32.4473C18.177 25.4485 24.4157 20.801 31.5721 20.801C34.4858 20.7956 37.3617 21.5811 39.9787 23.0973L39.8648 23.0395C41.18 21.3561 42.7779 20.0167 44.556 19.107L44.6466 19.0658C46.3473 18.2055 48.1785 17.7657 50.0279 17.7733C53.0966 17.7716 56.0783 18.98 58.502 21.2076C60.9258 23.4352 62.6534 26.555 63.412 30.0742C64.1706 33.5934 63.917 37.3114 62.6912 40.641C61.4654 43.9706 59.3373 46.722 56.643 48.4605L56.571 48.5045C57.4924 50.2289 58.006 52.2144 58.0581 54.2538C58.1102 56.2932 57.6989 58.3118 56.8673 60.099C56.0356 61.8862 54.8139 63.3765 53.3298 64.4145C51.8456 65.4524 50.1532 66 48.4293 66H48.4131L14.1875 65.9973ZM3.93374 49.203C3.93682 52.4205 5.01811 55.5051 6.94039 57.7803C8.86267 60.0554 11.469 61.3351 14.1875 61.3388H48.4177C49.3377 61.3384 50.2439 61.0752 51.0595 60.5716C51.8752 60.0679 52.576 59.3388 53.1026 58.446C53.6291 57.5532 53.9659 56.5232 54.0841 55.4434C54.2024 54.3637 54.0987 53.2661 53.7819 52.2439C53.465 51.2217 52.9444 50.3051 52.2643 49.572C51.5841 48.8389 50.7645 48.311 49.875 48.033C48.9856 47.755 48.0526 47.7352 47.1553 47.9753C46.258 48.2154 45.4229 48.7082 44.721 49.412L44.7303 49.4038C44.5333 49.6015 44.3054 49.7513 44.0595 49.8448C43.8136 49.9383 43.5545 49.9735 43.2971 49.9485C43.0397 49.9234 42.789 49.8387 42.5593 49.699C42.3296 49.5593 42.1254 49.3674 41.9583 49.1343C41.7912 48.9011 41.6646 48.6314 41.5856 48.3403C41.5067 48.0493 41.4769 47.7427 41.4981 47.4381C41.5192 47.1334 41.5908 46.8367 41.7089 46.5648C41.8269 46.2929 41.989 46.0512 42.186 45.8535L42.1907 45.8508C43.4846 44.5521 45.0465 43.6829 46.7169 43.3318L46.775 43.3208C46.7539 39.4832 45.6962 35.7543 43.7565 32.6791C41.8169 29.6038 39.0969 27.3435 35.9943 26.2286C32.8917 25.1136 29.5691 25.2025 26.5123 26.4822C23.4554 27.7618 20.8245 30.1652 19.0042 33.341L18.9693 33.4043C20.4554 34.0311 21.843 34.9466 23.075 36.113L23.0471 36.0883C23.2485 36.2795 23.4161 36.5158 23.5403 36.7836C23.6645 37.0515 23.743 37.3457 23.7711 37.6495C23.7993 37.9532 23.7766 38.2606 23.7044 38.554C23.6322 38.8474 23.5119 39.121 23.3503 39.3594C23.1888 39.5977 22.9891 39.7961 22.7628 39.9431C22.5364 40.0901 22.2878 40.183 22.0312 40.2163C21.7745 40.2496 21.5149 40.2228 21.267 40.1373C21.0191 40.0519 20.7879 39.9095 20.5865 39.7183L20.5911 39.721C18.7894 37.995 16.5403 37.0559 14.2223 37.0618H14.1944C11.4743 37.0632 8.86821 38.3424 6.94436 40.6183C5.0205 42.8943 3.93853 45.9809 3.93607 49.2003L3.93374 49.203ZM46.1778 23.353C45.0695 23.925 44.1192 24.673 43.3013 25.5888L43.3059 25.5833C45.6105 27.6963 47.4759 30.4054 48.7594 33.5032C50.0429 36.601 50.7105 40.0053 50.711 43.4555V43.4995C51.8263 43.8295 52.8069 44.3438 53.6852 45.0285L53.648 45.001C57.3308 43.2383 59.8797 39.0418 59.8797 34.1385C59.8796 31.1531 58.9142 28.281 57.1816 26.1113C55.4491 23.9416 53.0807 22.6388 50.5623 22.4703H50.5368C50.3524 22.4574 50.1681 22.451 49.9838 22.451H49.9605C48.6395 22.4498 47.3321 22.766 46.1174 23.3805L46.1778 23.353ZM66.5017 59.3835L61.8036 53.196C61.4551 52.7369 61.275 52.1327 61.3029 51.5164C61.3307 50.9001 61.5643 50.3222 61.9523 49.9098C62.3402 49.4973 62.8507 49.2841 63.3714 49.3172C63.8921 49.3502 64.3804 49.6266 64.7289 50.0858L64.7312 50.0885L69.4294 56.2843C69.6019 56.5116 69.735 56.7769 69.8209 57.0651C69.9068 57.3533 69.9439 57.6587 69.9301 57.9638C69.9163 58.269 69.8518 58.5679 69.7404 58.8436C69.629 59.1193 69.4728 59.3663 69.2807 59.5705C69.0886 59.7747 68.8644 59.9322 68.6209 60.0339C68.3774 60.1355 68.1194 60.1795 67.8616 60.1631C67.6037 60.1468 67.3512 60.0705 67.1182 59.9386C66.8853 59.8067 66.6766 59.6218 66.5041 59.3945L66.5017 59.3918V59.3835ZM76.7555 38.181L69.7314 37.73C69.4639 37.7292 69.1993 37.664 68.9537 37.5382C68.7082 37.4124 68.4868 37.2288 68.3032 36.9985C68.1196 36.7682 67.9775 36.496 67.8857 36.1986C67.7938 35.9012 67.7541 35.5848 67.7689 35.2686C67.7838 34.9524 67.8529 34.6431 67.972 34.3596C68.0912 34.0761 68.2579 33.8242 68.4619 33.6194C68.666 33.4146 68.9032 33.2611 69.159 33.1683C69.4148 33.0756 69.6839 33.0454 69.9499 33.0798H69.9452L76.9692 33.5308C77.4715 33.5783 77.9391 33.852 78.2759 34.2955C78.6127 34.739 78.793 35.3185 78.7796 35.9145C78.7662 36.5106 78.5601 37.0779 78.2039 37.4996C77.8476 37.9212 77.3683 38.1651 76.8647 38.181H76.7555ZM63.3255 19.976C63.1522 19.749 63.0185 19.4837 62.9322 19.1953C62.8459 18.9069 62.8088 18.6011 62.8228 18.2957C62.8368 17.9902 62.9018 17.691 63.014 17.4154C63.1262 17.1397 63.2834 16.8931 63.4765 16.6898L63.4788 16.687L68.7137 11.1265C68.9066 10.9223 69.1315 10.765 69.3757 10.6637C69.6199 10.5623 69.8786 10.5189 70.137 10.5359C70.3953 10.5529 70.6483 10.6299 70.8816 10.7627C71.1148 10.8954 71.3236 11.0811 71.4962 11.3094C71.6687 11.5376 71.8016 11.8038 71.8872 12.0929C71.9728 12.3819 72.0095 12.688 71.9952 12.9938C71.9808 13.2996 71.9157 13.5991 71.8036 13.8751C71.6915 14.1511 71.5345 14.3983 71.3417 14.6025L71.3393 14.6053L66.1021 20.174C65.9104 20.3786 65.6864 20.5363 65.4431 20.6382C65.1998 20.7401 64.9418 20.7841 64.6841 20.7677C64.4263 20.7514 64.1738 20.675 63.9411 20.5429C63.7084 20.4108 63.4999 20.2256 63.3278 19.998L63.3255 19.9953V19.976ZM35.2712 18.1775L30.5753 11.979C30.2268 11.5199 30.0467 10.9157 30.0746 10.2994C30.0884 9.99427 30.1529 9.69532 30.2643 9.41965C30.3757 9.14398 30.532 8.89698 30.724 8.69275C30.9161 8.48853 31.1403 8.33109 31.3838 8.22941C31.6273 8.12773 31.8853 8.08381 32.1431 8.10015C32.6639 8.13316 33.1522 8.40963 33.5007 8.86875L33.503 8.8715L38.1942 15.0783C38.3667 15.3056 38.4998 15.5709 38.5857 15.8591C38.6716 16.1473 38.7087 16.4527 38.6949 16.7578C38.6811 17.063 38.6166 17.3619 38.5052 17.6376C38.3938 17.9133 38.2376 18.1603 38.0455 18.3645C37.8534 18.5687 37.6292 18.7262 37.3857 18.8279C37.1422 18.9295 36.8842 18.9735 36.6264 18.9571C36.3685 18.9408 36.1159 18.8645 35.883 18.7326C35.6501 18.6007 35.4414 18.4158 35.2689 18.1885L35.2665 18.1858L35.2712 18.1775ZM50.9713 12.9718C50.4691 12.9388 49.9965 12.6797 49.6505 12.2477C49.3045 11.8156 49.1111 11.2433 49.1101 10.648L49.1124 10.5105V10.516L49.4935 2.2C49.5387 1.60939 49.7723 1.06133 50.1468 0.667325C50.5213 0.273324 51.0085 0.062985 51.5094 0.0791016C52.0103 0.0952183 52.4871 0.33658 52.843 0.754081C53.1988 1.17158 53.4069 1.73386 53.4249 2.3265L53.4226 2.4585V2.453L53.0415 10.769C53.0137 11.3634 52.7948 11.9227 52.4297 12.3322C52.0647 12.7418 51.5811 12.9706 51.0782 12.9718H50.9713Z" fill="#699BF7"/>
</g>
<defs>
<clipPath id="clip0_3_32">
<rect width="79" height="66" fill="white"/>
</clipPath>
</defs>
</svg>
